<svg width="640" height="420" viewBox="0 0 640 420" fill="none" xmlns="http://www.w3.org/2000/svg">
  <rect width="640" height="420" rx="28" fill="#F4E7D5"/>
  <rect x="34" y="34" width="572" height="352" rx="24" fill="#F9F1E7"/>
  <circle cx="518" cy="118" r="78" fill="#E0C39A"/>
  <ellipse cx="212" cy="304" rx="148" ry="56" fill="#E8D4BA"/>
  <rect x="256" y="114" width="128" height="188" rx="34" fill="#59724A"/>
  <rect x="286" y="88" width="66" height="42" rx="14" fill="#6F845D"/>
  <rect x="298" y="62" width="42" height="34" rx="10" fill="#1A2E4C"/>
  <ellipse cx="320" cy="246" rx="34" ry="58" fill="#C6A15C"/>
  <path d="M436 256C462 216 502 198 538 204C522 240 486 270 444 282L436 256Z" fill="#6A835B"/>
  <path d="M470 170C486 146 514 134 542 138C532 162 508 186 478 194L470 170Z" fill="#7C9467"/>
  <text x="58" y="88" fill="#1A2E4C" font-family="Plus Jakarta Sans, Arial, sans-serif" font-size="28" font-weight="700">Huile d'olive</text>
  <text x="58" y="126" fill="#7C6B58" font-family="Plus Jakarta Sans, Arial, sans-serif" font-size="20">Douce, fruitée, locale</text>
</svg>
