<svg width="640" height="420" viewBox="0 0 640 420" fill="none" xmlns="http://www.w3.org/2000/svg">
  <rect width="640" height="420" rx="28" fill="#F3E5BA"/>
  <rect x="34" y="34" width="572" height="352" rx="24" fill="#FAF4DE"/>
  <circle cx="510" cy="118" r="80" fill="#E9D589"/>
  <ellipse cx="222" cy="306" rx="160" ry="58" fill="#E7D7A4"/>
  <rect x="238" y="132" width="164" height="188" rx="34" fill="#D6AE38"/>
  <rect x="258" y="100" width="124" height="42" rx="16" fill="#F1E6BA"/>
  <rect x="262" y="180" width="116" height="96" rx="18" fill="#FFF8E5"/>
  <path d="M286 230C310 198 348 184 384 190C372 226 336 252 292 258L286 230Z" fill="#799756"/>
  <circle cx="476" cy="260" r="18" fill="#E0BC4D"/>
  <circle cx="514" cy="284" r="12" fill="#E0BC4D"/>
  <circle cx="540" cy="240" r="10" fill="#E0BC4D"/>
  <text x="58" y="88" fill="#1A2E4C" font-family="Plus Jakarta Sans, Arial, sans-serif" font-size="28" font-weight="700">Moutarde douce</text>
  <text x="58" y="126" fill="#8C7A4B" font-family="Plus Jakarta Sans, Arial, sans-serif" font-size="20">La base d'une sauce bien montée</text>
</svg>
